:FULLY-SPECIFIED
:FORCE-ALL-JOINTS-BE-3DOF
:DEGREES
849
root 3.87225 16.3019 28.1657 -9.40199 6.97598 359.57
lfemur -22.7616 0.671015 -17.7494
ltibia 37.3268 0 0
lfoot -7.70733 -12.916 0
ltoes 2.10976 0 0
rfemur -35.7359 -3.19006 0.632151
rtibia 106.701 0 0
rfoot 36.2897 21.5875 0
rtoes -4.26317 0 0
lowerback 4.27397 2.98959 -3.03709
upperback 1.08861 3.85776 0.278053
thorax -1.49183 1.93759 1.76551
lowerneck -6.31932 -3.76758 2.46624
upperneck 9.0031 -5.44596 1.33737
head 4.04121 -2.53936 -0.284723
lclavicle -3.26255e-14 7.55382e-15 0
lhumerus -50.4128 -10.5342 84.1033
lradius 55.7645 0 0
lwrist 21.0421 0 0
lhand -2.86005 3.53525 0
lfingers 7.12502 0 0
lthumb 22.8483 32.2018 0
rclavicle -3.26255e-14 7.55382e-15 0
rhumerus -38.7405 14.4239 -66.364
rradius 50.804 0 0
rwrist 9.62928 0 0
rhand -36.7033 -33.3678 0
rfingers 7.12502 0 0
rthumb -9.78842 -783.12 0
850
root 3.90249 16.3128 28.2744 -9.82801 7.74382 -0.288382
lfemur -22.1657 0.997006 -18.2449
ltibia 37.5162 -0 0
lfoot -7.86541 -13.9574 -0.041402
ltoes 2.88472 -0 0
rfemur -37.8583 -3.4036 0.642221
rtibia 106.227 -0 0
rfoot 36.326 21.6697 -0.142683
rtoes -3.75282 0 0
lowerback 4.79124 2.73243 -3.29693
upperback 1.26806 3.48388 0.210006
thorax -1.5984 1.75353 1.84803
lowerneck -6.36478 -3.79606 2.41906
upperneck 9.03548 -5.4911 1.42559
head 4.06404 -2.55763 -0.250567
lclavicle -3.26255e-14 7.55382e-15 0
lhumerus -49.7041 -11.2175 83.9362
lradius 55.965 -0 0
lwrist 21.2617 0 0
lhand -2.45807 3.46053 -0.00122719
lfingers 7.12502 -0 0
lthumb 23.2325 32.0646 -0.00607387
rclavicle -3.26255e-14 7.55382e-15 0
rhumerus -39.4436 13.2368 -65.089
rradius 50.4778 -0 0
rwrist 9.61456 0 0
rhand -36.0193 -33.6529 -0.0429853
rfingers 7.12502 -0 0
rthumb -9.12951 -63.3705 -0.0315886
851
root 3.92841 16.3261 28.3776 -10.2489 8.50546 -0.194516
lfemur -21.5345 1.33455 -18.638
ltibia 37.6155 -0 0
lfoot -7.93153 -15.0859 -0.0759787
ltoes 3.96782 -0 0
rfemur -39.8691 -3.53384 0.793658
rtibia 104.425 -0 0
rfoot 35.6357 21.313 -0.124084
rtoes -3.71343 0 0
lowerback 5.34613 2.46071 -3.5087
upperback 1.46207 3.08933 0.136075
thorax -1.70228 1.55876 1.90582
lowerneck -6.40778 -3.80602 2.38504
upperneck 9.03598 -5.51331 1.53099
head 4.07571 -2.56401 -0.211511
lclavicle -3.26255e-14 7.55382e-15 0
lhumerus -48.8902 -11.9358 83.7408
lradius 56.1335 -0 0
lwrist 21.4664 0 0
lhand -1.97306 3.39021 -0.00657655
lfingers 7.12502 -0 0
lthumb 23.6968 31.9247 -0.0137277
rclavicle -3.26255e-14 7.55382e-15 0
rhumerus -40.1978 12.0769 -63.8462
rradius 50.2047 -0 0
rwrist 9.53139 0 0
rhand -34.7271 -33.7544 -0.0487055
rfingers 7.12502 -0 0
rthumb -7.88391 -63.4249 -0.0244975
852
root 3.95033 16.3413 28.4755 -10.6632 9.25862 -0.143349
lfemur -20.8752 1.68306 -18.9386
ltibia 37.6363 -0 0
lfoot -7.91851 -16.2777 -0.102402
ltoes 5.30879 -0 0
rfemur -41.7756 -3.59215 1.07123
rtibia 101.479 -0 0
rfoot 34.3116 20.5761 0.0216393
rtoes -4.0879 0 0
lowerback 5.93207 2.17666 -3.6785
upperback 1.66837 2.67767 0.0565107
thorax -1.80318 1.35501 1.9417
lowerneck -6.44859 -3.79951 2.36262
upperneck 9.0073 -5.515 1.65142
head 4.07717 -2.55981 -0.168174
lclavicle -3.26255e-14 7.55382e-15 0
lhumerus -47.9852 -12.6846 83.52
lradius 56.2744 -0 0
lwrist 21.6568 0 0
lhand -1.41266 3.32639 -0.0148371
lfingers 7.12502 -0 0
lthumb 24.2337 31.7841 -0.0221773
rclavicle -3.26255e-14 7.55382e-15 0
rhumerus -40.9922 10.9411 -62.6344
rradius 49.9851 -0 0
rwrist 9.38053 0 0
rhand -32.9181 -33.6963 -0.0253526
rfingers 7.12502 -0 0
rthumb -6.1398 -63.3091 0.0118096
853
root 3.9686 16.3581 28.5687 -11.0692 10.0011 -0.129744
lfemur -20.195 2.04193 -19.1564
ltibia 37.5899 -0 0
lfoot -7.83928 -17.5089 -0.119573
ltoes 6.85739 -0 0
rfemur -43.5849 -3.59139 1.4611
rtibia 97.5721 -0 0
rfoot 32.4446 19.5145 0.25138
rtoes -4.81913 0 0
lowerback 6.54251 1.88253 -3.81234
upperback 1.88464 2.25246 -0.0283914
thorax -1.90083 1.14403 1.95847
lowerneck -6.48749 -3.77856 2.35028
upperneck 8.95216 -5.49858 1.78466
head 4.06936 -2.54634 -0.121181
lclavicle -3.26255e-14 7.55382e-15 0
lhumerus -47.0034 -13.4596 83.277
lradius 56.3919 -0 0
lwrist 21.8331 0 0
lhand -0.78457 3.27116 -0.0248797
lfingers 7.12502 -0 0
lthumb 24.8357 31.6446 -0.0307054
rclavicle -3.26255e-14 7.55382e-15 0
rhumerus -41.816 9.82611 -61.4528
rradius 49.8192 -0 0
rwrist 9.1627 0 0
rhand -30.6836 -33.5023 0.0157538
rfingers 7.12502 -0 0
rthumb -3.98509 -63.0485 0.0648304
854
root 3.98355 16.3762 28.6576 -11.465 10.7308 -0.148478
lfemur -19.5013 2.41064 -19.3015
ltibia 37.4876 -0 0
lfoot -7.7068 -18.7557 -0.126834
ltoes 8.56337 -0 0
rfemur -45.3039 -3.54569 1.95074
rtibia 92.8886 -0 0
rfoot 30.1257 18.1837 0.518842
rtoes -5.85 0 0
lowerback 7.17091 1.58058 -3.91611
upperback 2.1086 1.81726 -0.118285
thorax -1.99499 0.927604 1.95894
lowerneck -6.52474 -3.74525 2.34648
upperneck 8.87327 -5.46645 1.92848
head 4.05322 -2.52492 -0.0711594
lclavicle -3.26255e-14 7.55382e-15 0
lhumerus -45.9594 -14.2566 83.0156
lradius 56.4905 -0 0
lwrist 21.9959 0 0
lhand -0.0964554 3.22663 -0.0356655
lfingers 7.12502 -0 0
lthumb 25.4952 31.5081 -0.038673
rclavicle -3.26255e-14 7.55382e-15 0
rhumerus -42.6588 8.72779 -60.3011
rradius 49.7075 -0 0
rwrist 8.87865 0 0
rhand -28.1148 -33.1965 0.0623482
rfingers 7.12502 -0 0
rthumb -1.50765 -62.6692 0.121278
855
root 3.99551 16.3951 28.7425 -11.8487 11.4457 -0.194234
lfemur -18.8016 2.78881 -19.3837
ltibia 37.3408 -0 0
lfoot -7.53403 -19.9942 -0.124121
ltoes 10.3765 -0 0
rfemur -46.9397 -3.47023 2.52879
rtibia 87.6125 -0 0
rfoot 27.4469 16.6414 0.77947
rtoes -7.1234 0 0
lowerback 7.81082 1.27317 -3.9956
upperback 2.33794 1.37562 -0.212768
thorax -2.0854 0.707494 1.94591
lowerneck -6.56059 -3.70161 2.34969
upperneck 8.77335 -5.42103 2.08066
head 4.02969 -2.49686 -0.0187404
lclavicle -3.26255e-14 7.55382e-15 0
lhumerus -44.8679 -15.0716 82.7398
lradius 56.5745 -0 0
lwrist 22.1455 0 0
lhand 0.644001 3.19496 -0.0462515
lfingers 7.12502 -0 0
lthumb 26.2048 31.3766 -0.0455288
rclavicle -3.26255e-14 7.55382e-15 0
rhumerus -43.5103 7.6418 -59.1794
rradius 49.6503 -0 0
rwrist 8.5291 0 0
rhand -25.3028 -32.8037 0.103043
rfingers 7.12502 -0 0
rthumb 1.20458 -62.1979 0.168965
856
root 4.00482 16.4146 28.824 -12.218 12.1439 -0.2616
lfemur -18.1032 3.17626 -19.4133
ltibia 37.1609 -0 0
lfoot -7.33389 -21.2003 -0.112067
ltoes 12.2464 -0 0
rfemur -48.4995 -3.38103 3.18504
rtibia 81.9277 -0 0
rfoot 24.5023 14.9487 0.994668
rtoes -8.58224 0 0
lowerback 8.4558 0.962732 -4.05647
upperback 2.57033 0.931077 -0.311375
thorax -2.17183 0.485492 1.92215
lowerneck -6.59531 -3.64972 2.35838
upperneck 8.6551 -5.36473 2.23894
head 3.99972 -2.46348 0.0354445
lclavicle -3.26255e-14 7.55382e-15 0
lhumerus -43.7439 -15.901 82.4545
lradius 56.6482 -0 0
lwrist 22.2824 0 0
lhand 1.42912 3.17829 -0.0557936
lfingers 7.12502 -0 0
lthumb 26.957 31.252 -0.0508156
rclavicle -3.26255e-14 7.55382e-15 0
rhumerus -44.3606 6.56333 -58.0879
rradius 49.648 -0 0
rwrist 8.11481 0 0
rhand -22.339 -32.3495 0.12879
rfingers 7.12502 -0 0
rthumb 4.06346 -61.6623 0.198308
